<?xml version="1.0" encoding="iso-8859-1"?>
<!-- Generator: Adobe Illustrator 19.0.0, SVG Export Plug-In . SVG Version: 6.00 Build 0)  -->
<svg version="1.1" id="Layer_1" xmlns="http://www.w3.org/2000/svg" xmlns:xlink="http://www.w3.org/1999/xlink" x="0px" y="0px"
	 viewBox="0 0 512 512" style="enable-background:new 0 0 512 512;" xml:space="preserve">
<g>
	<g>
		<g>
			<path d="M509.499,415.624c-16.666-16.666-28.177-51.942-32.538-99.541c22.938-32.179,35.038-69.367,35.038-107.759
				c0-110.165-99.524-199.791-221.867-199.791c-84.252,0-162.22,43.867-199.287,111.935C35.805,156.861,0.001,215.53,0.001,281.6
				c0,38.391,12.1,75.571,35.038,107.75c-4.352,47.599-15.872,82.876-32.538,99.55c-2.594,2.594-3.243,6.554-1.604,9.839
				c1.459,2.918,4.437,4.727,7.637,4.727c0.393,0,0.785-0.026,1.186-0.085c2.978-0.418,71.953-10.351,122.172-39.134
				c28.416,11.375,58.658,17.143,89.975,17.143c72.727,0,137.394-31.678,177.882-80.515c47.035,21.224,100.192,28.902,102.53,29.237
				c0.393,0.051,0.794,0.077,1.195,0.077c3.191,0,6.17-1.8,7.629-4.719C512.741,422.186,512.093,418.218,509.499,415.624z
				 M221.867,464.325c-24.694,0-48.654-3.846-71.451-11.456c28.562-17.901,28.558-19.287,28.528-24.123
				c-0.017-2.978-1.63-5.811-4.181-7.339c-3.84-2.304-8.747-1.254-11.315,2.321c-4.207,3.285-21.393,14.31-36.71,23.757
				c-0.005,0.003-0.01,0.007-0.016,0.011c-31.573,19.041-73.708,29.966-98.552,35.167c15.343-27.085,21.632-65.041,24.149-95.027
				c0.171-2.057-0.41-4.113-1.638-5.777C28.69,352.034,17.067,317.363,17.067,281.6c0-97.482,85.997-177.373,193.845-182.47
				c0.351-0.016,0.703-0.031,1.055-0.046c1.288-0.055,2.579-0.098,3.873-0.132c0.387-0.01,0.774-0.022,1.161-0.03
				c1.618-0.034,3.239-0.055,4.865-0.055c82.927,0,154.505,44.208,186.68,107.6c11.637,22.929,18.119,48.368,18.119,75.132
				c0,0.154-0.004,0.307-0.005,0.46c-0.003,1.227-0.022,2.451-0.052,3.673c-0.012,0.489-0.03,0.977-0.046,1.465
				c-0.033,0.967-0.074,1.932-0.124,2.895c-0.023,0.456-0.045,0.913-0.072,1.368c-0.082,1.363-0.176,2.724-0.291,4.079
				c-0.016,0.19-0.037,0.378-0.054,0.568c-0.108,1.217-0.229,2.431-0.364,3.642c-0.043,0.392-0.09,0.783-0.136,1.174
				c-0.132,1.115-0.274,2.228-0.429,3.337c-0.039,0.281-0.076,0.563-0.116,0.843c-0.418,2.891-0.911,5.761-1.479,8.608
				c-0.029,0.144-0.058,0.287-0.087,0.43C406.157,399.425,322.344,464.325,221.867,464.325z M410.401,386.926
				c16.846-24.388,27.525-51.497,31.533-79.826c0.007-0.048,0.014-0.096,0.021-0.145c0.229-1.631,0.44-3.266,0.625-4.905
				c0.008-0.07,0.014-0.141,0.022-0.211c0.161-1.441,0.302-2.886,0.429-4.333c0.029-0.329,0.058-0.659,0.086-0.988
				c0.124-1.509,0.234-3.019,0.32-4.533c0.011-0.198,0.018-0.398,0.029-0.597c0.07-1.305,0.124-2.611,0.166-3.92
				c0.015-0.462,0.029-0.924,0.04-1.387c0.033-1.366,0.055-2.733,0.058-4.102c0-0.127,0.005-0.252,0.005-0.379
				c0-29.265-7.023-57.08-19.63-82.151C389.25,130.136,311.711,81.8,221.866,81.8c-0.202,0-0.403,0.007-0.604,0.008
				c-1.824,0.004-3.643,0.026-5.456,0.07c-0.839,0.02-1.675,0.058-2.512,0.086c-1.167,0.04-2.334,0.079-3.496,0.135
				c-1.025,0.049-2.046,0.114-3.068,0.176c-0.941,0.057-1.882,0.114-2.82,0.182c-1.166,0.084-2.329,0.18-3.491,0.28
				c-0.745,0.065-1.488,0.131-2.231,0.203c-1.32,0.126-2.637,0.261-3.951,0.408c-0.492,0.055-0.983,0.115-1.475,0.173
				c-1.543,0.182-3.082,0.373-4.618,0.584c-0.024,0.003-0.047,0.007-0.071,0.01c-22.638,3.112-44.497,9.339-64.972,18.54
				c38.033-47.616,100.352-77.056,167.032-77.056c112.93,0,204.8,81.971,204.8,182.724c0,35.78-11.622,70.451-33.613,100.267
				c-1.229,1.664-1.809,3.721-1.638,5.777c2.517,29.978,8.806,67.934,24.141,95.01C465.16,405.461,436.752,398.31,410.401,386.926z"
				/>
			<path d="M268.907,204.797c-21.419,0-37.299,11.733-47.061,25.233c-9.762-13.5-25.643-25.233-47.061-25.233
				c-22.682,0-41.472,12.356-50.261,33.058c-10.539,24.841-4.232,55.398,15.701,76.032c11.324,11.725,72.03,73.139,76.245,76.664
				c1.587,1.323,3.533,1.98,5.47,1.98c2.176,0,4.352-0.836,6.007-2.483c0.631-0.614,62.805-62.387,75.657-76.297
				c20.215-21.905,26.283-52.053,15.454-76.8C310.242,216.82,291.494,204.797,268.907,204.797z M291.059,302.171
				c-10.112,10.948-53.291,54.025-69.214,69.879c-15.701-15.531-58.436-58.718-69.35-70.016
				c-17.596-18.227-18.833-42.018-12.262-57.515c6.11-14.396,18.705-22.656,34.551-22.656c20.335,0,33.792,15.505,39.142,28.791
				c1.306,3.226,4.437,5.342,7.919,5.342c3.482,0,6.622-2.116,7.919-5.342c5.342-13.286,18.799-28.791,39.142-28.791
				c15.829,0,28.407,7.996,34.517,21.931C310.071,258.984,308.825,282.928,291.059,302.171z"/>
		</g>
	</g>
</g>
<g>
</g>
<g>
</g>
<g>
</g>
<g>
</g>
<g>
</g>
<g>
</g>
<g>
</g>
<g>
</g>
<g>
</g>
<g>
</g>
<g>
</g>
<g>
</g>
<g>
</g>
<g>
</g>
<g>
</g>
</svg>
